<svg xmlns="http://www.w3.org/2000/svg" width="624" height="384" viewBox="0 0 624 384"><rect x="0.0" y="0.0" width="624.0" height="384.0" fill="#ffffff" fill-opacity="1.0" stroke="none"/><line x1="127.84837364421423" y1="32.266666666666666" x2="127.84837364421423" y2="340.0" stroke="#dddddd" stroke-width="0.6666666666666666"/><line x1="230.85607512395111" y1="32.266666666666666" x2="230.85607512395111" y2="340.0" stroke="#dddddd" stroke-width="0.6666666666666666"/><line x1="333.863776603688" y1="32.266666666666666" x2="333.863776603688" y2="340.0" stroke="#dddddd" stroke-width="0.6666666666666666"/><line x1="436.8714780834249" y1="32.266666666666666" x2="436.8714780834249" y2="340.0" stroke="#dddddd" stroke-width="0.6666666666666666"/><line x1="539.8791795631619" y1="32.266666666666666" x2="539.8791795631619" y2="340.0" stroke="#dddddd" stroke-width="0.6666666666666666"/><line x1="76.34452290434577" y1="32.266666666666666" x2="76.34452290434577" y2="340.0" stroke="#dddddd" stroke-width="1.3333333333333333"/><line x1="179.3522243840827" y1="32.266666666666666" x2="179.3522243840827" y2="340.0" stroke="#dddddd" stroke-width="1.3333333333333333"/><line x1="282.3599258638195" y1="32.266666666666666" x2="282.3599258638195" y2="340.0" stroke="#dddddd" stroke-width="1.3333333333333333"/><line x1="385.3676273435565" y1="32.266666666666666" x2="385.3676273435565" y2="340.0" stroke="#dddddd" stroke-width="1.3333333333333333"/><line x1="488.37532882329333" y1="32.266666666666666" x2="488.37532882329333" y2="340.0" stroke="#dddddd" stroke-width="1.3333333333333333"/><line x1="591.3830303030303" y1="32.266666666666666" x2="591.3830303030303" y2="340.0" stroke="#dddddd" stroke-width="1.3333333333333333"/><line x1="60.42666666666666" y1="298.0363636363636" x2="616.6666666666666" y2="298.0363636363636" stroke="#dddddd" stroke-width="0.6666666666666666"/><line x1="60.42666666666666" y1="242.08484848484846" x2="616.6666666666666" y2="242.08484848484846" stroke="#dddddd" stroke-width="0.6666666666666666"/><line x1="60.42666666666666" y1="186.13333333333327" x2="616.6666666666666" y2="186.13333333333327" stroke="#dddddd" stroke-width="0.6666666666666666"/><line x1="60.42666666666666" y1="130.18181818181816" x2="616.6666666666666" y2="130.18181818181816" stroke="#dddddd" stroke-width="0.6666666666666666"/><line x1="60.42666666666666" y1="74.230303030303" x2="616.6666666666666" y2="74.230303030303" stroke="#dddddd" stroke-width="0.6666666666666666"/><line x1="60.42666666666666" y1="60.24242424242425" x2="616.6666666666666" y2="60.24242424242425" stroke="#dddddd" stroke-width="0.6666666666666666"/><line x1="60.42666666666666" y1="326.0121212121212" x2="616.6666666666666" y2="326.0121212121212" stroke="#dddddd" stroke-width="1.3333333333333333"/><line x1="60.42666666666666" y1="270.06060606060606" x2="616.6666666666666" y2="270.06060606060606" stroke="#dddddd" stroke-width="1.3333333333333333"/><line x1="60.42666666666666" y1="214.10909090909087" x2="616.6666666666666" y2="214.10909090909087" stroke="#dddddd" stroke-width="1.3333333333333333"/><line x1="60.42666666666666" y1="158.15757575757573" x2="616.6666666666666" y2="158.15757575757573" stroke="#dddddd" stroke-width="1.3333333333333333"/><line x1="60.42666666666666" y1="102.2060606060606" x2="616.6666666666666" y2="102.2060606060606" stroke="#dddddd" stroke-width="1.3333333333333333"/><line x1="60.42666666666666" y1="46.25454545454545" x2="616.6666666666666" y2="46.25454545454545" stroke="#dddddd" stroke-width="1.3333333333333333"/><line x1="60.42666666666666" y1="32.26666666666665" x2="616.6666666666666" y2="32.26666666666665" stroke="#dddddd" stroke-width="1.3333333333333333"/><rect x="60.42666666666666" y="32.266666666666666" width="556.24" height="307.73333333333335" fill="#ffffff" fill-opacity="0.0" stroke="#444444" stroke-width="1.3333333333333333"/><line x1="76.34452290434577" y1="340.0" x2="76.34452290434577" y2="343.66666666666663" stroke="#444444" stroke-width="1.3333333333333333"/><text x="76.34452290434577" y="355.9866666666667" fill="#333333" font-size="11.733333333333334" font-family="sans-serif" text-anchor="middle">0</text><line x1="179.3522243840827" y1="340.0" x2="179.3522243840827" y2="343.66666666666663" stroke="#444444" stroke-width="1.3333333333333333"/><text x="179.3522243840827" y="355.9866666666667" fill="#333333" font-size="11.733333333333334" font-family="sans-serif" text-anchor="middle">480</text><line x1="282.3599258638195" y1="340.0" x2="282.3599258638195" y2="343.66666666666663" stroke="#444444" stroke-width="1.3333333333333333"/><text x="282.3599258638195" y="355.9866666666667" fill="#333333" font-size="11.733333333333334" font-family="sans-serif" text-anchor="middle">960</text><line x1="385.3676273435565" y1="340.0" x2="385.3676273435565" y2="343.66666666666663" stroke="#444444" stroke-width="1.3333333333333333"/><text x="385.3676273435565" y="355.9866666666667" fill="#333333" font-size="11.733333333333334" font-family="sans-serif" text-anchor="middle">1440</text><line x1="488.37532882329333" y1="340.0" x2="488.37532882329333" y2="343.66666666666663" stroke="#444444" stroke-width="1.3333333333333333"/><text x="488.37532882329333" y="355.9866666666667" fill="#333333" font-size="11.733333333333334" font-family="sans-serif" text-anchor="middle">1920</text><line x1="591.3830303030303" y1="340.0" x2="591.3830303030303" y2="343.66666666666663" stroke="#444444" stroke-width="1.3333333333333333"/><text x="591.3830303030303" y="355.9866666666667" fill="#333333" font-size="11.733333333333334" font-family="sans-serif" text-anchor="middle">2400</text><line x1="60.42666666666666" y1="326.0121212121212" x2="56.76" y2="326.0121212121212" stroke="#444444" stroke-width="1.3333333333333333"/><text x="53.82666666666666" y="330.1187878787879" fill="#333333" font-size="11.733333333333334" font-family="sans-serif" text-anchor="end">0.00</text><line x1="60.42666666666666" y1="270.06060606060606" x2="56.76" y2="270.06060606060606" stroke="#444444" stroke-width="1.3333333333333333"/><text x="53.82666666666666" y="274.16727272727275" fill="#333333" font-size="11.733333333333334" font-family="sans-serif" text-anchor="end">0.20</text><line x1="60.42666666666666" y1="214.10909090909087" x2="56.76" y2="214.10909090909087" stroke="#444444" stroke-width="1.3333333333333333"/><text x="53.82666666666666" y="218.21575757575755" fill="#333333" font-size="11.733333333333334" font-family="sans-serif" text-anchor="end">0.40</text><line x1="60.42666666666666" y1="158.15757575757573" x2="56.76" y2="158.15757575757573" stroke="#444444" stroke-width="1.3333333333333333"/><text x="53.82666666666666" y="162.26424242424238" fill="#333333" font-size="11.733333333333334" font-family="sans-serif" text-anchor="end">0.60</text><line x1="60.42666666666666" y1="102.2060606060606" x2="56.76" y2="102.2060606060606" stroke="#444444" stroke-width="1.3333333333333333"/><text x="53.82666666666666" y="106.31272727272727" fill="#333333" font-size="11.733333333333334" font-family="sans-serif" text-anchor="end">0.80</text><line x1="60.42666666666666" y1="46.25454545454545" x2="56.76" y2="46.25454545454545" stroke="#444444" stroke-width="1.3333333333333333"/><text x="53.82666666666666" y="50.36121212121211" fill="#333333" font-size="11.733333333333334" font-family="sans-serif" text-anchor="end">1.00</text><line x1="60.42666666666666" y1="32.26666666666665" x2="56.76" y2="32.26666666666665" stroke="#444444" stroke-width="1.3333333333333333"/><text x="53.82666666666666" y="36.37333333333331" fill="#333333" font-size="11.733333333333334" font-family="sans-serif" text-anchor="end">1.05</text><text x="60.42666666666666" y="21.413333333333334" fill="#333333" font-size="17.599999999999998" font-family="sans-serif" text-anchor="start">CDF for  Debug time with 25% worse understanding</text><text x="338.5466666666666" y="373.73333333333335" fill="#333333" font-size="14.666666666666666" font-family="sans-serif" text-anchor="middle">Debug duration (minutes)</text><text x="17.599999999999998" y="186.13333333333333" fill="#333333" font-size="14.666666666666666" font-family="sans-serif" text-anchor="middle" transform="rotate(-90.0 17.599999999999998 186.13333333333333)">Proportion shorter than duration</text><line x1="591.3830303030303" y1="326.0121212121212" x2="591.3830303030303" y2="46.25454545454545" stroke="#3d414f" stroke-width="1.4211023622047245" stroke-dasharray="5.333333333333333,5.333333333333333"/><line x1="85.71030303030302" y1="323.21454545454543" x2="86.51647445320677" y2="320.41696969696966" stroke="#3d414f" stroke-width="1.4211023622047245"/><line x1="86.51647445320677" y1="320.41696969696966" x2="87.05786085024585" y2="317.61939393939394" stroke="#3d414f" stroke-width="1.4211023622047245"/><line x1="87.05786085024585" y1="317.61939393939394" x2="87.65243137832363" y2="314.8218181818182" stroke="#3d414f" stroke-width="1.4211023622047245"/><line x1="87.65243137832363" y1="314.8218181818182" x2="88.01571763977229" y2="312.0242424242424" stroke="#3d414f" stroke-width="1.4211023622047245"/><line x1="88.01571763977229" y1="312.0242424242424" x2="88.46699904595462" y2="309.2266666666667" stroke="#3d414f" stroke-width="1.4211023622047245"/><line x1="88.46699904595462" y1="309.2266666666667" x2="88.78676730762655" y2="306.42909090909086" stroke="#3d414f" stroke-width="1.4211023622047245"/><line x1="88.78676730762655" y1="306.42909090909086" x2="88.97531054943256" y2="303.63151515151515" stroke="#3d414f" stroke-width="1.4211023622047245"/><line x1="88.97531054943256" y1="303.63151515151515" x2="89.08512930378261" y2="300.8339393939394" stroke="#3d414f" stroke-width="1.4211023622047245"/><line x1="89.08512930378261" y1="300.8339393939394" x2="89.40439682274594" y2="298.0363636363636" stroke="#3d414f" stroke-width="1.4211023622047245"/><line x1="89.40439682274594" y1="298.0363636363636" x2="89.67405011659508" y2="295.2387878787879" stroke="#3d414f" stroke-width="1.4211023622047245"/><line x1="89.67405011659508" y1="295.2387878787879" x2="90.0092066850104" y2="292.4412121212121" stroke="#3d414f" stroke-width="1.4211023622047245"/><line x1="90.0092066850104" y1="292.4412121212121" x2="90.28789990093237" y2="289.64363636363635" stroke="#3d414f" stroke-width="1.4211023622047245"/><line x1="90.28789990093237" y1="289.64363636363635" x2="90.62137238440661" y2="286.8460606060606" stroke="#3d414f" stroke-width="1.4211023622047245"/><line x1="90.62137238440661" y1="286.8460606060606" x2="90.94676825944296" y2="284.0484848484848" stroke="#3d414f" stroke-width="1.4211023622047245"/><line x1="90.94676825944296" y1="284.0484848484848" x2="91.21061100648393" y2="281.2509090909091" stroke="#3d414f" stroke-width="1.4211023622047245"/><line x1="91.21061100648393" y1="281.2509090909091" x2="91.4855065234081" y2="278.4533333333333" stroke="#3d414f" stroke-width="1.4211023622047245"/><line x1="91.4855065234081" y1="278.4533333333333" x2="91.8261096497131" y2="275.65575757575755" stroke="#3d414f" stroke-width="1.4211023622047245"/><line x1="91.8261096497131" y1="275.65575757575755" x2="92.54988486838363" y2="272.85818181818183" stroke="#3d414f" stroke-width="1.4211023622047245"/><line x1="92.54988486838363" y1="272.85818181818183" x2="93.48104805062479" y2="270.06060606060606" stroke="#3d414f" stroke-width="1.4211023622047245"/><line x1="93.48104805062479" y1="270.06060606060606" x2="93.69037859242022" y2="267.2630303030303" stroke="#3d414f" stroke-width="1.4211023622047245"/><line x1="93.69037859242022" y1="267.2630303030303" x2="94.53384197872211" y2="264.4654545454545" stroke="#3d414f" stroke-width="1.4211023622047245"/><line x1="94.53384197872211" y1="264.4654545454545" x2="94.791625477008" y2="261.66787878787875" stroke="#3d414f" stroke-width="1.4211023622047245"/><line x1="94.791625477008" y1="261.66787878787875" x2="95.23322674327176" y2="258.87030303030303" stroke="#3d414f" stroke-width="1.4211023622047245"/><line x1="95.23322674327176" y1="258.87030303030303" x2="95.55687423931855" y2="256.07272727272726" stroke="#3d414f" stroke-width="1.4211023622047245"/><line x1="95.55687423931855" y1="256.07272727272726" x2="95.91716400081789" y2="253.2751515151515" stroke="#3d414f" stroke-width="1.4211023622047245"/><line x1="95.91716400081789" y1="253.2751515151515" x2="96.18826642494463" y2="250.47757575757578" stroke="#3d414f" stroke-width="1.4211023622047245"/><line x1="96.18826642494463" y1="250.47757575757578" x2="96.49980578243802" y2="247.67999999999998" stroke="#3d414f" stroke-width="1.4211023622047245"/><line x1="96.49980578243802" y1="247.67999999999998" x2="96.96956818840307" y2="244.88242424242426" stroke="#3d414f" stroke-width="1.4211023622047245"/><line x1="96.96956818840307" y1="244.88242424242426" x2="97.42248763700339" y2="242.08484848484846" stroke="#3d414f" stroke-width="1.4211023622047245"/><line x1="97.42248763700339" y1="242.08484848484846" x2="97.78921472101743" y2="239.28727272727272" stroke="#3d414f" stroke-width="1.4211023622047245"/><line x1="97.78921472101743" y1="239.28727272727272" x2="98.14509967164082" y2="236.48969696969698" stroke="#3d414f" stroke-width="1.4211023622047245"/><line x1="98.14509967164082" y1="236.48969696969698" x2="98.86325151685719" y2="233.6921212121212" stroke="#3d414f" stroke-width="1.4211023622047245"/><line x1="98.86325151685719" y1="233.6921212121212" x2="99.35457477109055" y2="230.89454545454547" stroke="#3d414f" stroke-width="1.4211023622047245"/><line x1="99.35457477109055" y1="230.89454545454547" x2="99.9073689180438" y2="228.09696969696967" stroke="#3d414f" stroke-width="1.4211023622047245"/><line x1="99.9073689180438" y1="228.09696969696967" x2="100.4370761882973" y2="225.29939393939395" stroke="#3d414f" stroke-width="1.4211023622047245"/><line x1="100.4370761882973" y1="225.29939393939395" x2="100.87114555415081" y2="222.50181818181818" stroke="#3d414f" stroke-width="1.4211023622047245"/><line x1="100.87114555415081" y1="222.50181818181818" x2="101.26809376623574" y2="219.7042424242424" stroke="#3d414f" stroke-width="1.4211023622047245"/><line x1="101.26809376623574" y1="219.7042424242424" x2="102.10079473357143" y2="216.90666666666667" stroke="#3d414f" stroke-width="1.4211023622047245"/><line x1="102.10079473357143" y1="216.90666666666667" x2="102.55417116817388" y2="214.10909090909087" stroke="#3d414f" stroke-width="1.4211023622047245"/><line x1="102.55417116817388" y1="214.10909090909087" x2="103.0414037494241" y2="211.31151515151515" stroke="#3d414f" stroke-width="1.4211023622047245"/><line x1="103.0414037494241" y1="211.31151515151515" x2="103.46016780314469" y2="208.5139393939394" stroke="#3d414f" stroke-width="1.4211023622047245"/><line x1="103.46016780314469" y1="208.5139393939394" x2="103.98963854587237" y2="205.71636363636367" stroke="#3d414f" stroke-width="1.4211023622047245"/><line x1="103.98963854587237" y1="205.71636363636367" x2="104.66768576298855" y2="202.91878787878787" stroke="#3d414f" stroke-width="1.4211023622047245"/><line x1="104.66768576298855" y1="202.91878787878787" x2="105.83716638709336" y2="200.12121212121212" stroke="#3d414f" stroke-width="1.4211023622047245"/><line x1="105.83716638709336" y1="200.12121212121212" x2="106.65119540303692" y2="197.32363636363635" stroke="#3d414f" stroke-width="1.4211023622047245"/><line x1="106.65119540303692" y1="197.32363636363635" x2="107.54295632050801" y2="194.52606060606058" stroke="#3d414f" stroke-width="1.4211023622047245"/><line x1="107.54295632050801" y1="194.52606060606058" x2="108.13838395262327" y2="191.72848484848487" stroke="#3d414f" stroke-width="1.4211023622047245"/><line x1="108.13838395262327" y1="191.72848484848487" x2="109.01258464199967" y2="188.93090909090907" stroke="#3d414f" stroke-width="1.4211023622047245"/><line x1="109.01258464199967" y1="188.93090909090907" x2="109.63111863912468" y2="186.13333333333333" stroke="#3d414f" stroke-width="1.4211023622047245"/><line x1="109.63111863912468" y1="186.13333333333333" x2="110.338175071092" y2="183.33575757575755" stroke="#3d414f" stroke-width="1.4211023622047245"/><line x1="110.338175071092" y1="183.33575757575755" x2="111.14062294811905" y2="180.53818181818178" stroke="#3d414f" stroke-width="1.4211023622047245"/><line x1="111.14062294811905" y1="180.53818181818178" x2="111.67991344891462" y2="177.740606060606" stroke="#3d414f" stroke-width="1.4211023622047245"/><line x1="111.67991344891462" y1="177.740606060606" x2="112.16715374365953" y2="174.94303030303027" stroke="#3d414f" stroke-width="1.4211023622047245"/><line x1="112.16715374365953" y1="174.94303030303027" x2="112.79225610329925" y2="172.14545454545447" stroke="#3d414f" stroke-width="1.4211023622047245"/><line x1="112.79225610329925" y1="172.14545454545447" x2="113.38504840287717" y2="169.34787878787876" stroke="#3d414f" stroke-width="1.4211023622047245"/><line x1="113.38504840287717" y1="169.34787878787876" x2="114.16903586655803" y2="166.55030303030298" stroke="#3d414f" stroke-width="1.4211023622047245"/><line x1="114.16903586655803" y1="166.55030303030298" x2="114.98268754678648" y2="163.7527272727273" stroke="#3d414f" stroke-width="1.4211023622047245"/><line x1="114.98268754678648" y1="163.7527272727273" x2="115.54302936981476" y2="160.9551515151515" stroke="#3d414f" stroke-width="1.4211023622047245"/><line x1="115.54302936981476" y1="160.9551515151515" x2="116.33482492215063" y2="158.15757575757576" stroke="#3d414f" stroke-width="1.4211023622047245"/><line x1="116.33482492215063" y1="158.15757575757576" x2="117.13600203009486" y2="155.36" stroke="#3d414f" stroke-width="1.4211023622047245"/><line x1="117.13600203009486" y1="155.36" x2="118.06723155470738" y2="152.5624242424242" stroke="#3d414f" stroke-width="1.4211023622047245"/><line x1="118.06723155470738" y1="152.5624242424242" x2="118.67809437319478" y2="149.76484848484847" stroke="#3d414f" stroke-width="1.4211023622047245"/><line x1="118.67809437319478" y1="149.76484848484847" x2="119.52431606872258" y2="146.9672727272727" stroke="#3d414f" stroke-width="1.4211023622047245"/><line x1="119.52431606872258" y1="146.9672727272727" x2="120.36754759272026" y2="144.16969696969696" stroke="#3d414f" stroke-width="1.4211023622047245"/><line x1="120.36754759272026" y1="144.16969696969696" x2="121.0631353171504" y2="141.37212121212116" stroke="#3d414f" stroke-width="1.4211023622047245"/><line x1="121.0631353171504" y1="141.37212121212116" x2="121.66824967268576" y2="138.57454545454544" stroke="#3d414f" stroke-width="1.4211023622047245"/><line x1="121.66824967268576" y1="138.57454545454544" x2="122.42521365256192" y2="135.77696969696967" stroke="#3d414f" stroke-width="1.4211023622047245"/><line x1="122.42521365256192" y1="135.77696969696967" x2="123.49102630113956" y2="132.9793939393939" stroke="#3d414f" stroke-width="1.4211023622047245"/><line x1="123.49102630113956" y1="132.9793939393939" x2="124.48407590578634" y2="130.18181818181816" stroke="#3d414f" stroke-width="1.4211023622047245"/><line x1="124.48407590578634" y1="130.18181818181816" x2="125.21893659578555" y2="127.38424242424244" stroke="#3d414f" stroke-width="1.4211023622047245"/><line x1="125.21893659578555" y1="127.38424242424244" x2="126.17431620618467" y2="124.58666666666666" stroke="#3d414f" stroke-width="1.4211023622047245"/><line x1="126.17431620618467" y1="124.58666666666666" x2="126.77131985547157" y2="121.7890909090909" stroke="#3d414f" stroke-width="1.4211023622047245"/><line x1="126.77131985547157" y1="121.7890909090909" x2="127.91121838771716" y2="118.99151515151516" stroke="#3d414f" stroke-width="1.4211023622047245"/><line x1="127.91121838771716" y1="118.99151515151516" x2="129.4142512905771" y2="116.19393939393936" stroke="#3d414f" stroke-width="1.4211023622047245"/><line x1="129.4142512905771" y1="116.19393939393936" x2="130.49410036718172" y2="113.39636363636362" stroke="#3d414f" stroke-width="1.4211023622047245"/><line x1="130.49410036718172" y1="113.39636363636362" x2="132.02889062989746" y2="110.59878787878786" stroke="#3d414f" stroke-width="1.4211023622047245"/><line x1="132.02889062989746" y1="110.59878787878786" x2="132.80062741409535" y2="107.8012121212121" stroke="#3d414f" stroke-width="1.4211023622047245"/><line x1="132.80062741409535" y1="107.8012121212121" x2="134.54216151644408" y2="105.00363636363636" stroke="#3d414f" stroke-width="1.4211023622047245"/><line x1="134.54216151644408" y1="105.00363636363636" x2="136.3126984849711" y2="102.2060606060606" stroke="#3d414f" stroke-width="1.4211023622047245"/><line x1="136.3126984849711" y1="102.2060606060606" x2="138.01217834073296" y2="99.40848484848482" stroke="#3d414f" stroke-width="1.4211023622047245"/><line x1="138.01217834073296" y1="99.40848484848482" x2="139.28861574261987" y2="96.61090909090906" stroke="#3d414f" stroke-width="1.4211023622047245"/><line x1="139.28861574261987" y1="96.61090909090906" x2="141.47049694999112" y2="93.8133333333333" stroke="#3d414f" stroke-width="1.4211023622047245"/><line x1="141.47049694999112" y1="93.8133333333333" x2="143.81185851721116" y2="91.01575757575756" stroke="#3d414f" stroke-width="1.4211023622047245"/><line x1="143.81185851721116" y1="91.01575757575756" x2="145.67245919207397" y2="88.2181818181818" stroke="#3d414f" stroke-width="1.4211023622047245"/><line x1="145.67245919207397" y1="88.2181818181818" x2="147.465459411509" y2="85.42060606060605" stroke="#3d414f" stroke-width="1.4211023622047245"/><line x1="147.465459411509" y1="85.42060606060605" x2="149.88525766877436" y2="82.6230303030303" stroke="#3d414f" stroke-width="1.4211023622047245"/><line x1="149.88525766877436" y1="82.6230303030303" x2="151.89825668418388" y2="79.8254545454545" stroke="#3d414f" stroke-width="1.4211023622047245"/><line x1="151.89825668418388" y1="79.8254545454545" x2="155.46709743568596" y2="77.02787878787879" stroke="#3d414f" stroke-width="1.4211023622047245"/><line x1="155.46709743568596" y1="77.02787878787879" x2="159.85390725861762" y2="74.230303030303" stroke="#3d414f" stroke-width="1.4211023622047245"/><line x1="159.85390725861762" y1="74.230303030303" x2="165.31967460006356" y2="71.43272727272725" stroke="#3d414f" stroke-width="1.4211023622047245"/><line x1="165.31967460006356" y1="71.43272727272725" x2="169.8449893514235" y2="68.6351515151515" stroke="#3d414f" stroke-width="1.4211023622047245"/><line x1="169.8449893514235" y1="68.6351515151515" x2="171.95076444155214" y2="65.83757575757575" stroke="#3d414f" stroke-width="1.4211023622047245"/><line x1="171.95076444155214" y1="65.83757575757575" x2="176.33403692837572" y2="63.039999999999964" stroke="#3d414f" stroke-width="1.4211023622047245"/><line x1="176.33403692837572" y1="63.039999999999964" x2="179.80390331249993" y2="60.24242424242425" stroke="#3d414f" stroke-width="1.4211023622047245"/><line x1="179.80390331249993" y1="60.24242424242425" x2="183.84519512332724" y2="57.44484848484849" stroke="#3d414f" stroke-width="1.4211023622047245"/><line x1="183.84519512332724" y1="57.44484848484849" x2="191.14444941831212" y2="54.64727272727271" stroke="#3d414f" stroke-width="1.4211023622047245"/><line x1="191.14444941831212" y1="54.64727272727271" x2="198.97572748361313" y2="51.84969696969699" stroke="#3d414f" stroke-width="1.4211023622047245"/><line x1="198.97572748361313" y1="51.84969696969699" x2="219.15722052891672" y2="49.0521212121212" stroke="#3d414f" stroke-width="1.4211023622047245"/><line x1="219.15722052891672" y1="49.0521212121212" x2="292.665179847687" y2="46.25454545454545" stroke="#3d414f" stroke-width="1.4211023622047245"/><line x1="87.4853679814454" y1="323.21454545454543" x2="88.59044926914552" y2="320.41696969696966" stroke="#00803c" stroke-width="1.4211023622047245"/><line x1="88.59044926914552" y1="320.41696969696966" x2="89.48699680896141" y2="317.61939393939394" stroke="#00803c" stroke-width="1.4211023622047245"/><line x1="89.48699680896141" y1="317.61939393939394" x2="90.00882589197161" y2="314.8218181818182" stroke="#00803c" stroke-width="1.4211023622047245"/><line x1="90.00882589197161" y1="314.8218181818182" x2="90.36555961362447" y2="312.0242424242424" stroke="#00803c" stroke-width="1.4211023622047245"/><line x1="90.36555961362447" y1="312.0242424242424" x2="90.80238588401087" y2="309.2266666666667" stroke="#00803c" stroke-width="1.4211023622047245"/><line x1="90.80238588401087" y1="309.2266666666667" x2="91.38015608833666" y2="306.42909090909086" stroke="#00803c" stroke-width="1.4211023622047245"/><line x1="91.38015608833666" y1="306.42909090909086" x2="91.92972024253393" y2="303.63151515151515" stroke="#00803c" stroke-width="1.4211023622047245"/><line x1="91.92972024253393" y1="303.63151515151515" x2="92.64871013507218" y2="300.8339393939394" stroke="#00803c" stroke-width="1.4211023622047245"/><line x1="92.64871013507218" y1="300.8339393939394" x2="93.57656475950932" y2="298.0363636363636" stroke="#00803c" stroke-width="1.4211023622047245"/><line x1="93.57656475950932" y1="298.0363636363636" x2="94.30594206423754" y2="295.2387878787879" stroke="#00803c" stroke-width="1.4211023622047245"/><line x1="94.30594206423754" y1="295.2387878787879" x2="96.43604182245629" y2="292.4412121212121" stroke="#00803c" stroke-width="1.4211023622047245"/><line x1="96.43604182245629" y1="292.4412121212121" x2="97.2321711864445" y2="289.64363636363635" stroke="#00803c" stroke-width="1.4211023622047245"/><line x1="97.2321711864445" y1="289.64363636363635" x2="98.67906935398983" y2="286.8460606060606" stroke="#00803c" stroke-width="1.4211023622047245"/><line x1="98.67906935398983" y1="286.8460606060606" x2="99.62310352468097" y2="284.0484848484848" stroke="#00803c" stroke-width="1.4211023622047245"/><line x1="99.62310352468097" y1="284.0484848484848" x2="100.51693158690864" y2="281.2509090909091" stroke="#00803c" stroke-width="1.4211023622047245"/><line x1="100.51693158690864" y1="281.2509090909091" x2="101.07715934891338" y2="278.4533333333333" stroke="#00803c" stroke-width="1.4211023622047245"/><line x1="101.07715934891338" y1="278.4533333333333" x2="101.94801027860832" y2="275.65575757575755" stroke="#00803c" stroke-width="1.4211023622047245"/><line x1="101.94801027860832" y1="275.65575757575755" x2="102.9150363625929" y2="272.85818181818183" stroke="#00803c" stroke-width="1.4211023622047245"/><line x1="102.9150363625929" y1="272.85818181818183" x2="103.56426390624553" y2="270.06060606060606" stroke="#00803c" stroke-width="1.4211023622047245"/><line x1="103.56426390624553" y1="270.06060606060606" x2="104.65926570612694" y2="267.2630303030303" stroke="#00803c" stroke-width="1.4211023622047245"/><line x1="104.65926570612694" y1="267.2630303030303" x2="106.0957324993088" y2="264.4654545454545" stroke="#00803c" stroke-width="1.4211023622047245"/><line x1="106.0957324993088" y1="264.4654545454545" x2="107.24343566629821" y2="261.66787878787875" stroke="#00803c" stroke-width="1.4211023622047245"/><line x1="107.24343566629821" y1="261.66787878787875" x2="107.96014851232286" y2="258.87030303030303" stroke="#00803c" stroke-width="1.4211023622047245"/><line x1="107.96014851232286" y1="258.87030303030303" x2="109.04381550690661" y2="256.07272727272726" stroke="#00803c" stroke-width="1.4211023622047245"/><line x1="109.04381550690661" y1="256.07272727272726" x2="110.04142970184861" y2="253.2751515151515" stroke="#00803c" stroke-width="1.4211023622047245"/><line x1="110.04142970184861" y1="253.2751515151515" x2="110.84859092423912" y2="250.47757575757578" stroke="#00803c" stroke-width="1.4211023622047245"/><line x1="110.84859092423912" y1="250.47757575757578" x2="112.18341370127696" y2="247.67999999999998" stroke="#00803c" stroke-width="1.4211023622047245"/><line x1="112.18341370127696" y1="247.67999999999998" x2="113.261954703514" y2="244.88242424242426" stroke="#00803c" stroke-width="1.4211023622047245"/><line x1="113.261954703514" y1="244.88242424242426" x2="114.12804422947352" y2="242.08484848484846" stroke="#00803c" stroke-width="1.4211023622047245"/><line x1="114.12804422947352" y1="242.08484848484846" x2="114.88793957343393" y2="239.28727272727272" stroke="#00803c" stroke-width="1.4211023622047245"/><line x1="114.88793957343393" y1="239.28727272727272" x2="115.75567668094894" y2="236.48969696969698" stroke="#00803c" stroke-width="1.4211023622047245"/><line x1="115.75567668094894" y1="236.48969696969698" x2="116.68912067639613" y2="233.6921212121212" stroke="#00803c" stroke-width="1.4211023622047245"/><line x1="116.68912067639613" y1="233.6921212121212" x2="118.21853982945215" y2="230.89454545454547" stroke="#00803c" stroke-width="1.4211023622047245"/><line x1="118.21853982945215" y1="230.89454545454547" x2="119.40326418848112" y2="228.09696969696967" stroke="#00803c" stroke-width="1.4211023622047245"/><line x1="119.40326418848112" y1="228.09696969696967" x2="120.07449772349555" y2="225.29939393939395" stroke="#00803c" stroke-width="1.4211023622047245"/><line x1="120.07449772349555" y1="225.29939393939395" x2="121.71469191398734" y2="222.50181818181818" stroke="#00803c" stroke-width="1.4211023622047245"/><line x1="121.71469191398734" y1="222.50181818181818" x2="123.11254176646283" y2="219.7042424242424" stroke="#00803c" stroke-width="1.4211023622047245"/><line x1="123.11254176646283" y1="219.7042424242424" x2="124.60000312267451" y2="216.90666666666667" stroke="#00803c" stroke-width="1.4211023622047245"/><line x1="124.60000312267451" y1="216.90666666666667" x2="125.96251450197383" y2="214.10909090909087" stroke="#00803c" stroke-width="1.4211023622047245"/><line x1="125.96251450197383" y1="214.10909090909087" x2="127.65659815771426" y2="211.31151515151515" stroke="#00803c" stroke-width="1.4211023622047245"/><line x1="127.65659815771426" y1="211.31151515151515" x2="128.33347065921114" y2="208.5139393939394" stroke="#00803c" stroke-width="1.4211023622047245"/><line x1="128.33347065921114" y1="208.5139393939394" x2="129.59755978615215" y2="205.71636363636367" stroke="#00803c" stroke-width="1.4211023622047245"/><line x1="129.59755978615215" y1="205.71636363636367" x2="130.94730970139722" y2="202.91878787878787" stroke="#00803c" stroke-width="1.4211023622047245"/><line x1="130.94730970139722" y1="202.91878787878787" x2="132.10944357907505" y2="200.12121212121212" stroke="#00803c" stroke-width="1.4211023622047245"/><line x1="132.10944357907505" y1="200.12121212121212" x2="134.46789442052244" y2="197.32363636363635" stroke="#00803c" stroke-width="1.4211023622047245"/><line x1="134.46789442052244" y1="197.32363636363635" x2="136.52241978885917" y2="194.52606060606058" stroke="#00803c" stroke-width="1.4211023622047245"/><line x1="136.52241978885917" y1="194.52606060606058" x2="137.9155600950429" y2="191.72848484848487" stroke="#00803c" stroke-width="1.4211023622047245"/><line x1="137.9155600950429" y1="191.72848484848487" x2="139.53582287913983" y2="188.93090909090907" stroke="#00803c" stroke-width="1.4211023622047245"/><line x1="139.53582287913983" y1="188.93090909090907" x2="141.23884196252078" y2="186.13333333333333" stroke="#00803c" stroke-width="1.4211023622047245"/><line x1="141.23884196252078" y1="186.13333333333333" x2="142.61500611421712" y2="183.33575757575755" stroke="#00803c" stroke-width="1.4211023622047245"/><line x1="142.61500611421712" y1="183.33575757575755" x2="144.67653830695053" y2="180.53818181818178" stroke="#00803c" stroke-width="1.4211023622047245"/><line x1="144.67653830695053" y1="180.53818181818178" x2="147.72727174126044" y2="177.740606060606" stroke="#00803c" stroke-width="1.4211023622047245"/><line x1="147.72727174126044" y1="177.740606060606" x2="148.36825205572262" y2="174.94303030303027" stroke="#00803c" stroke-width="1.4211023622047245"/><line x1="148.36825205572262" y1="174.94303030303027" x2="150.89126589239882" y2="172.14545454545447" stroke="#00803c" stroke-width="1.4211023622047245"/><line x1="150.89126589239882" y1="172.14545454545447" x2="153.12667211176554" y2="169.34787878787876" stroke="#00803c" stroke-width="1.4211023622047245"/><line x1="153.12667211176554" y1="169.34787878787876" x2="155.53636175223394" y2="166.55030303030298" stroke="#00803c" stroke-width="1.4211023622047245"/><line x1="155.53636175223394" y1="166.55030303030298" x2="158.01935927815958" y2="163.7527272727273" stroke="#00803c" stroke-width="1.4211023622047245"/><line x1="158.01935927815958" y1="163.7527272727273" x2="159.70461811635326" y2="160.9551515151515" stroke="#00803c" stroke-width="1.4211023622047245"/><line x1="159.70461811635326" y1="160.9551515151515" x2="161.88428743749856" y2="158.15757575757576" stroke="#00803c" stroke-width="1.4211023622047245"/><line x1="161.88428743749856" y1="158.15757575757576" x2="165.17390706273267" y2="155.36" stroke="#00803c" stroke-width="1.4211023622047245"/><line x1="165.17390706273267" y1="155.36" x2="168.41577851710673" y2="152.5624242424242" stroke="#00803c" stroke-width="1.4211023622047245"/><line x1="168.41577851710673" y1="152.5624242424242" x2="170.4793225904038" y2="149.76484848484847" stroke="#00803c" stroke-width="1.4211023622047245"/><line x1="170.4793225904038" y1="149.76484848484847" x2="173.3234260705737" y2="146.9672727272727" stroke="#00803c" stroke-width="1.4211023622047245"/><line x1="173.3234260705737" y1="146.9672727272727" x2="175.8134105197478" y2="144.16969696969696" stroke="#00803c" stroke-width="1.4211023622047245"/><line x1="175.8134105197478" y1="144.16969696969696" x2="177.58052127666943" y2="141.37212121212116" stroke="#00803c" stroke-width="1.4211023622047245"/><line x1="177.58052127666943" y1="141.37212121212116" x2="181.88603025170534" y2="138.57454545454544" stroke="#00803c" stroke-width="1.4211023622047245"/><line x1="181.88603025170534" y1="138.57454545454544" x2="185.74833986649776" y2="135.77696969696967" stroke="#00803c" stroke-width="1.4211023622047245"/><line x1="185.74833986649776" y1="135.77696969696967" x2="189.6162915807974" y2="132.9793939393939" stroke="#00803c" stroke-width="1.4211023622047245"/><line x1="189.6162915807974" y1="132.9793939393939" x2="194.74261990907564" y2="130.18181818181816" stroke="#00803c" stroke-width="1.4211023622047245"/><line x1="194.74261990907564" y1="130.18181818181816" x2="197.58508671280435" y2="127.38424242424244" stroke="#00803c" stroke-width="1.4211023622047245"/><line x1="197.58508671280435" y1="127.38424242424244" x2="201.77850287032962" y2="124.58666666666666" stroke="#00803c" stroke-width="1.4211023622047245"/><line x1="201.77850287032962" y1="124.58666666666666" x2="207.50811464716128" y2="121.7890909090909" stroke="#00803c" stroke-width="1.4211023622047245"/><line x1="207.50811464716128" y1="121.7890909090909" x2="212.04625953491444" y2="118.99151515151516" stroke="#00803c" stroke-width="1.4211023622047245"/><line x1="212.04625953491444" y1="118.99151515151516" x2="217.58486025995535" y2="116.19393939393936" stroke="#00803c" stroke-width="1.4211023622047245"/><line x1="217.58486025995535" y1="116.19393939393936" x2="222.8442419188398" y2="113.39636363636362" stroke="#00803c" stroke-width="1.4211023622047245"/><line x1="222.8442419188398" y1="113.39636363636362" x2="229.57886317352154" y2="110.59878787878786" stroke="#00803c" stroke-width="1.4211023622047245"/><line x1="229.57886317352154" y1="110.59878787878786" x2="239.18955524237901" y2="107.8012121212121" stroke="#00803c" stroke-width="1.4211023622047245"/><line x1="239.18955524237901" y1="107.8012121212121" x2="248.29296888901484" y2="105.00363636363636" stroke="#00803c" stroke-width="1.4211023622047245"/><line x1="248.29296888901484" y1="105.00363636363636" x2="259.44719277673744" y2="102.2060606060606" stroke="#00803c" stroke-width="1.4211023622047245"/><line x1="259.44719277673744" y1="102.2060606060606" x2="265.74491874090376" y2="99.40848484848482" stroke="#00803c" stroke-width="1.4211023622047245"/><line x1="265.74491874090376" y1="99.40848484848482" x2="276.0374181433462" y2="96.61090909090906" stroke="#00803c" stroke-width="1.4211023622047245"/><line x1="276.0374181433462" y1="96.61090909090906" x2="291.5169600402581" y2="93.8133333333333" stroke="#00803c" stroke-width="1.4211023622047245"/><line x1="291.5169600402581" y1="93.8133333333333" x2="297.99476866665356" y2="91.01575757575756" stroke="#00803c" stroke-width="1.4211023622047245"/><line x1="297.99476866665356" y1="91.01575757575756" x2="312.99742309562487" y2="88.2181818181818" stroke="#00803c" stroke-width="1.4211023622047245"/><line x1="312.99742309562487" y1="88.2181818181818" x2="331.8965197775941" y2="85.42060606060605" stroke="#00803c" stroke-width="1.4211023622047245"/><line x1="331.8965197775941" y1="85.42060606060605" x2="351.63722287362407" y2="82.6230303030303" stroke="#00803c" stroke-width="1.4211023622047245"/><line x1="351.63722287362407" y1="82.6230303030303" x2="405.79948844306887" y2="79.8254545454545" stroke="#00803c" stroke-width="1.4211023622047245"/><line x1="405.79948844306887" y1="79.8254545454545" x2="470.35059324823425" y2="77.02787878787879" stroke="#00803c" stroke-width="1.4211023622047245"/><line x1="470.35059324823425" y1="77.02787878787879" x2="591.3830303030303" y2="74.230303030303" stroke="#00803c" stroke-width="1.4211023622047245"/><line x1="591.3830303030303" y1="74.230303030303" x2="591.3830303030303" y2="71.43272727272725" stroke="#00803c" stroke-width="1.4211023622047245"/><line x1="591.3830303030303" y1="71.43272727272725" x2="591.3830303030303" y2="68.6351515151515" stroke="#00803c" stroke-width="1.4211023622047245"/><line x1="591.3830303030303" y1="68.6351515151515" x2="591.3830303030303" y2="65.83757575757575" stroke="#00803c" stroke-width="1.4211023622047245"/><line x1="591.3830303030303" y1="65.83757575757575" x2="591.3830303030303" y2="63.039999999999964" stroke="#00803c" stroke-width="1.4211023622047245"/><line x1="591.3830303030303" y1="63.039999999999964" x2="591.3830303030303" y2="60.24242424242425" stroke="#00803c" stroke-width="1.4211023622047245"/><line x1="591.3830303030303" y1="60.24242424242425" x2="591.3830303030303" y2="57.44484848484849" stroke="#00803c" stroke-width="1.4211023622047245"/><line x1="591.3830303030303" y1="57.44484848484849" x2="591.3830303030303" y2="54.64727272727271" stroke="#00803c" stroke-width="1.4211023622047245"/><line x1="591.3830303030303" y1="54.64727272727271" x2="591.3830303030303" y2="51.84969696969699" stroke="#00803c" stroke-width="1.4211023622047245"/><line x1="591.3830303030303" y1="51.84969696969699" x2="591.3830303030303" y2="49.0521212121212" stroke="#00803c" stroke-width="1.4211023622047245"/><line x1="591.3830303030303" y1="49.0521212121212" x2="591.3830303030303" y2="46.25454545454545" stroke="#00803c" stroke-width="1.4211023622047245"/><text x="548.4631546864732" y="186.13333333333333" fill="" font-size="16.0" font-family="sans-serif" text-anchor="middle">1 week</text></svg>